<?xml version="1.0" encoding="utf-8"?>
<!-- Generator: Adobe Illustrator 27.5.0, SVG Export Plug-In . SVG Version: 6.00 Build 0)  -->
<svg version="1.1" xmlns="http://www.w3.org/2000/svg" xmlns:xlink="http://www.w3.org/1999/xlink" x="0px" y="0px"
	 viewBox="0 0 500 500" style="enable-background:new 0 0 500 500;" xml:space="preserve">
<g id="BACKGROUND">
	<rect style="fill:#FFFFFF;" width="500" height="500"/>
</g>
<g id="OBJECTS">
	<g>
		<path style="fill:#C3EAF4;" d="M412.928,221.17c0,84.874-72.953,153.675-162.933,153.675c-71.761,0-132.695-43.768-154.42-104.543
			c-3.258-9.119-5.632-18.616-7.023-28.41c-0.983-6.775-1.48-13.689-1.48-20.722c0-15,2.285-29.503,6.536-43.212
			c19.788-63.824,82.311-110.453,156.387-110.453c31.758,0,61.4,8.573,86.463,23.404c16.47,9.735,30.953,22.182,42.775,36.665
			c17.851,21.894,29.593,48.467,32.801,77.433C412.63,210.312,412.928,215.706,412.928,221.17z"/>
		<path style="fill:#A8D9E5;" d="M379.233,127.574c-24.815,0.318-49.42,3.04-72.755,11.166
			c-36.208,12.616-66.685,37.261-98.066,59.284c-31.381,22.033-66.189,42.377-104.483,44.185
			c-5.126,0.238-10.271,0.129-15.377-0.318c-0.983-6.775-1.48-13.689-1.48-20.722c0-15,2.285-29.503,6.536-43.212
			c26.235,1.689,52.212,2.603,76.648-6.278c31.421-11.414,55.063-37.311,83.324-55.172c24.755-15.636,53.622-25.122,82.877-25.599
			C352.928,100.644,367.412,113.091,379.233,127.574z"/>
		<path style="fill:#A8D9E5;" d="M412.928,221.17c0,84.874-72.953,153.675-162.933,153.675c-71.761,0-132.695-43.768-154.42-104.543
			c13.907-0.616,28.689,2.642,42.387,5.95c40.132,9.695,82.659,18.387,122.135,6.308c47.692-14.583,82.758-57.079,130.211-72.427
			c7.103-2.295,14.364-3.934,21.725-5.126C412.63,210.312,412.928,215.706,412.928,221.17z"/>
	</g>
	<path style="fill:#1D1D1B;" d="M383.429,426.262c-0.163-0.895-0.51-1.769-0.95-2.563c-0.885-1.594-2.218-2.871-3.741-3.852
		c-1.595-1.028-3.378-1.705-5.179-2.276c-1.946-0.617-3.929-1.076-5.946-1.387c-0.989-0.152-1.968-0.237-2.948-0.289
		c0.289-0.243,0.061-0.796-0.328-0.793c-1.724,0.013-3.501-0.079-5.167-0.548c-1.704-0.479-3.306-1.266-4.76-2.273
		c-3.034-2.101-5.149-5.258-6.714-8.547c-0.376-0.79-0.714-1.596-1.035-2.41c0.199-0.191,0.321-0.463,0.241-0.808
		c-0.733-3.162-1.493-6.318-2.256-9.473c-0.371-1.537-0.76-3.069-1.149-4.601c-0.151-0.597-0.318-1.191-0.485-1.784
		c0.24-0.119,0.434-0.357,0.477-0.691c0.261-1.988-0.344-3.923-0.986-5.781c-0.7-2.026-1.405-4.051-2.108-6.076
		c-0.185-0.534-0.372-1.068-0.558-1.602c0.019-0.053,0.029-0.111,0.019-0.177c-0.49-3.288-0.902-6.582-1.495-9.855
		c-0.526-2.906-1.062-5.81-1.547-8.723c-0.433-4.166-1.2-8.308-1.847-12.438c-0.399-2.551-0.799-5.101-1.198-7.652
		c-0.13-0.831-0.267-1.662-0.405-2.493c0.114-3.413,0.155-6.827,0.109-10.242c-0.026-1.91-0.074-3.82-0.146-5.729
		c-0.02-0.524-0.027-1.059-0.039-1.595c0.147,0.005,0.306-0.08,0.298-0.252c-0.067-1.395-0.007-2.798,0-4.198
		c0.037-0.047,0.076-0.089,0.103-0.152c1.605-3.759,3.1-7.562,4.5-11.4c0.328,0.027,0.683-0.091,0.877-0.375
		c3.053-4.448,5.285-9.441,6.569-14.678c0.199-0.04,0.381-0.162,0.5-0.418c1.239-2.676,2.291-5.436,3.118-8.268
		c0.394-1.349,0.736-2.713,1.029-4.088c0.04,0.177,0.079,0.353,0.119,0.53c0.164,0.733,1.302,0.723,1.473,0
		c0.859-3.644,0.904-7.544,0.4-11.307c0.547-3.69-0.029-7.333-1.032-10.887c0.442-0.085,0.842-0.521,0.74-1.061
		c-0.873-4.626-2.181-9.146-3.874-13.53c0.065-0.166,0.088-0.348,0.041-0.528c-1.606-6.057-3.218-12.112-4.776-18.182
		c0.146-0.341,0.258-0.702,0.369-1.061c0.234-0.751,0.352-1.523,0.451-2.302c0.198-1.564,0.257-3.148,0.34-4.723
		c0.051-0.038,0.091-0.093,0.103-0.174c0.138-0.899,0.09-1.826,0.044-2.741c0.07-1.583,0.115-3.164,0.131-4.747
		c0.089,0.432,0.21,0.852,0.395,1.24c0.092,0.194,0.422,0.147,0.464-0.061c0.252-1.248-0.056-2.626-0.194-3.876
		c-0.15-1.353-0.295-2.706-0.434-4.06c-0.051-0.494-0.09-0.988-0.139-1.482c0.422-0.969,0.401-2.18,0.388-3.199
		c-0.016-1.234-0.074-2.468-0.185-3.698c-0.11-1.217-0.263-2.431-0.454-3.637c-0.178-1.12-0.349-2.289-0.702-3.376
		c0.026-0.757,0.048-1.514,0.073-2.271c0.091-2.793,0.176-5.587,0.28-8.38c0.119-0.356,0.245-0.709,0.385-1.055
		c0.086-0.213-0.004-0.375-0.152-0.468c0.286-0.227,0.575-0.45,0.888-0.65c0.408-0.26,0.835-0.49,1.276-0.689
		c0.372-0.167,0.788-0.305,1.128-0.539c1.556-0.52,3.111-1.041,4.655-1.596c2.829-1.017,5.645-2.156,8.193-3.768
		c2.513-1.59,4.666-3.615,6.254-6.139c0.853-1.356,1.55-2.802,2.228-4.251c0.676-1.442,1.376-2.887,1.892-4.395
		c0.58-1.695,0.905-3.457,0.842-5.252c-0.051-1.454-0.211-2.89-0.285-4.338c2.082-1.695,3.013-4.758,3.181-7.314
		c0.087-1.326-0.001-2.828-0.771-3.963c-0.91-1.34-2.373-1.493-3.87-1.481c-7.07,0.054-14.147-0.167-21.2-0.666
		c-0.984-0.07-1.967-0.152-2.951-0.222c-0.491-0.035-0.983-0.07-1.474-0.106c-0.32-0.023-0.732,0-1-0.215
		c-0.034-0.027-0.045-0.075-0.072-0.109c0.153-0.113,0.26-0.281,0.313-0.484c0.066-0.012,0.134-0.017,0.195-0.044
		c0.391-0.172,0.722-0.669,0.546-1.112c-0.488-1.228-0.993-2.452-1.548-3.651c-0.26-0.563-0.529-1.121-0.809-1.675
		c-0.117-0.231-0.245-0.493-0.393-0.743c0.058-0.93,0.05-1.864-0.083-2.774c-0.052-0.352-0.344-0.49-0.643-0.479
		c0.097-0.376,0.208-0.749,0.29-1.128c0.312-1.439,0.516-2.898,0.664-4.362c0.307-3.04,0.348-6.111,0.189-9.161
		c-0.159-3.042-0.488-6.074-0.897-9.091c-0.331-2.444-0.672-4.91-1.298-7.302c-0.032-0.738-0.067-1.472-0.084-2.195
		c-0.069-2.876,0.036-5.822-0.379-8.673c-0.169-1.164-0.428-2.599-1.481-3.312c-1.155-0.783-2.246-0.057-2.99,0.88
		c-1.373,1.73-2.644,3.539-3.854,5.388c-5.949,7.645-10.008,16.585-14.61,25.073c-0.799,1.475-1.6,2.952-2.407,4.425
		c0.049-0.421,0.095-0.847,0.08-1.269c-0.018-0.517-0.009-1.064-0.358-1.475c-0.136-0.16-0.444-0.158-0.58,0
		c-0.281,0.326-0.299,0.677-0.359,1.086c-0.058,0.398-0.096,0.795-0.123,1.196c-0.021,0.318-0.066,0.634-0.098,0.951
		c-0.019-0.103-0.038-0.206-0.056-0.309c-0.022-0.127-0.037-0.257-0.062-0.383c-0.034-0.173-0.117-0.313-0.232-0.444
		c-0.112-0.127-0.353-0.127-0.464,0c-0.229,0.263-0.249,0.573-0.248,0.907c0.001,0.323,0.03,0.636,0.095,0.953
		c0.112,0.55,0.293,1.077,0.509,1.594l-0.469,0.04c-2.182,0.185-4.363,0.371-6.545,0.556c-2.142,0.182-4.282,0.379-6.422,0.582
		c-1.653,0.156-3.377,0.269-5.033,0.576c-0.535-0.616-1.069-1.233-1.608-1.845c-0.413-0.47-1.185-0.081-1.193,0.494
		c-0.005,0.385-0.003,0.77-0.008,1.154c-0.438-0.841-0.88-1.68-1.332-2.513c-0.249-0.459-0.97-0.347-1.101,0.144
		c-0.021,0.08-0.035,0.162-0.053,0.243c-0.024-0.03-0.049-0.06-0.073-0.09l-3.414-4.228c-2.287-2.832-4.532-5.708-6.914-8.462
		c-2.303-2.663-4.96-4.842-7.79-6.918c-2.91-2.133-5.839-4.24-8.757-6.361c-1.533-1.114-3.067-2.226-4.604-3.334
		c-0.561-0.405-1.153-0.861-1.879-0.863c-0.76-0.002-1.35,0.539-1.538,1.252c-0.198,0.751-0.066,1.638-0.038,2.401
		c0.034,0.949,0.071,1.898,0.108,2.847c0.073,1.856,0.149,3.713,0.23,5.569c0.161,3.712,0.344,7.423,0.542,11.134
		c0.171,3.194,0.325,6.394,0.671,9.575c0.722,6.643,2.236,13.521,5.812,19.262c-0.263,0.056-0.526,0.113-0.79,0.166
		c-0.489,0.099-0.575,0.726-0.278,1.052c1.941,2.124,3.618,4.456,5.054,6.945c-0.18,0.04-0.36,0.076-0.537,0.139
		c-0.484,0.172-0.592,0.684-0.283,1.071c0.743,0.927,1.503,1.837,2.272,2.739c-0.111,0.438,0.005,0.934,0.069,1.374
		c0.033,0.224,0.081,0.443,0.124,0.663c-0.428,0.007-0.842,0.335-0.888,0.858c-0.121,1.356,0.849,2.377,1.226,3.605
		c0.388,1.264,0.357,2.6,0.283,3.906c-0.08,1.404-0.182,2.803-0.198,4.21c-0.009,0.777-0.013,1.556,0.044,2.331
		c0.022,0.307,0.049,0.63,0.098,0.948c-0.133,1.368-0.265,2.736-0.383,4.106c-0.032,0.365-0.065,0.73-0.098,1.096
		c-0.097,0.263-0.195,0.521-0.254,0.81c-0.091,0.444-0.168,0.89-0.244,1.337c-0.145,0.855-0.278,1.711-0.41,2.568
		c-0.259,1.674-0.516,3.348-0.763,5.023l-0.361,2.453c-0.12,0.818-0.324,1.665-0.359,2.491c-0.017,0.4,0.125,0.79,0.386,1.069
		c-0.376,1.684-0.557,3.401-0.506,5.132c0.014,0.451,0.291,0.737,0.636,0.834c-0.233,0.911-0.434,1.831-0.601,2.758
		c-0.199,1.104-0.417,2.263-0.491,3.415c-1.543,2.306-3.009,4.669-4.504,7.001c-1.072,1.674-2.137,3.352-3.196,5.035
		c-0.397,0.632-0.795,1.265-1.181,1.904c-1.087,0.867-2.176,1.725-3.217,2.653c-2.612,2.327-5.034,4.858-7.253,7.562
		c-0.171,0.208-0.233,0.43-0.225,0.637c-2.836,3.16-5.27,6.693-7.118,10.479c-0.458,0.938-0.915,1.905-1.293,2.898
		c-0.63,0.725-1.232,1.47-1.8,2.225c-0.983,1.308-1.88,2.681-2.681,4.107c-0.605,1.077-1.347,2.329-1.589,3.599
		c-0.841,0.912-1.686,1.82-2.507,2.749c-0.551,0.623-1.092,1.253-1.608,1.906c-0.497,0.631-1.111,1.285-1.33,2.072
		c-1.45,1.08-2.861,2.21-4.204,3.422c-3.087,2.786-5.872,5.889-8.32,9.25c-0.688,0.945-1.348,1.91-1.964,2.904
		c-0.04,0.065-0.081,0.133-0.121,0.199c-0.777,0.696-1.553,1.393-2.329,2.09c-0.036-0.259-0.322-0.489-0.594-0.314
		c-3.744,2.401-7.196,5.286-10.715,8.003c-3.538,2.731-7.083,5.453-10.616,8.19c-0.996,0.772-1.985,1.552-2.961,2.348
		c-0.48,0.391-0.955,0.783-1.415,1.197c-0.446,0.4-0.961,0.771-1.254,1.301c-0.086,0.155-0.025,0.317,0.093,0.411
		c-0.221,0.242-0.444,0.483-0.66,0.727c-2.92,3.279-5.532,6.831-7.802,10.589c-0.056,0.093-0.085,0.188-0.1,0.282
		c-3.608,3.951-6.787,8.305-9.356,12.964c-0.571,1.036-1.11,2.088-1.593,3.168c-0.529,0.514-1.057,1.029-1.566,1.565
		c-1.142,1.204-2.252,2.44-3.374,3.664c-2.245,2.448-4.482,4.901-6.723,7.353c-0.266,0.291-0.276,0.632-0.153,0.914
		c-5.244,6.389-9.881,13.304-12.605,21.143c-0.384,1.107-0.757,2.256-1.068,3.426c-2.145,3.782-3.858,7.819-5.077,11.92
		c-0.451,1.518-0.889,3.078-1.104,4.658c-0.19,0.435-0.392,0.864-0.571,1.303c-0.781,1.91-1.447,3.868-1.913,5.879
		c-0.233,1.004-0.425,2.022-0.547,3.046c-0.112,0.935-0.225,1.984,0.008,2.913c-0.185,1.427-0.258,2.868-0.162,4.305
		c0.062,0.932,0.172,1.971,0.442,2.944c-0.041,2.144-0.035,4.286,0.013,6.441c0.077,3.467,0.417,6.909,0.636,10.367
		c0.021,0.326,0.168,0.545,0.364,0.682c0.146,3.491,0.206,7.169,1.198,10.533c0.13,0.442,0.644,0.439,0.867,0.142
		c0.102,0.182,0.274,0.304,0.475,0.357c0.028,0.566,0.063,1.131,0.113,1.695c0.04,0.45,0.059,0.956,0.207,1.386
		c0.03,0.087,0.072,0.174,0.114,0.26c-1.012,1.592-2.029,3.185-2.885,4.861c-1.246,2.44-2.327,5.275-1.834,8.057
		c0.52,2.931,3.11,4.667,5.693,5.691c2.696,1.069,5.65,1.338,8.526,1.412c6.559,0.169,13.14,0.007,19.701-0.012
		c6.756-0.02,13.519,0.052,20.273-0.107c1.822-0.043,3.643-0.115,5.462-0.24c1.064-0.073,2.176-0.138,3.193-0.46
		c0.829,1.6,2.993,2.283,4.571,2.843c2.091,0.742,4.477,1.631,6.677,0.838c1.013-0.365,1.904-0.947,2.758-1.592
		c0.431-0.326,0.873-0.653,1.283-1.011c0.026-0.004,0.053-0.004,0.079-0.014c0.948-0.37,1.831-0.92,2.746-1.367
		c0.872-0.426,1.768-0.757,2.664-1.123c1.647-0.673,3.216-1.711,3.326-3.663c0.05-0.884-0.215-1.675-0.626-2.405
		c0.024,0.014,0.049,0.029,0.073,0.044c0.458,0.457,1.037,0.818,1.611,1.125c0.611,0.469,1.213,0.952,1.822,1.423
		c0.14,0.108,0.302,0.24,0.478,0.377c0.328,0.769,0.414,1.607,1.103,2.217c0.853,0.755,1.994,0.837,3.072,0.968
		c1.351,0.164,2.704,0.309,4.058,0.45c2.625,0.273,5.254,0.512,7.885,0.719c10.524,0.828,21.09,1.132,31.644,0.909
		c1.484-0.031,2.968-0.073,4.452-0.125c1.415-0.05,2.851-0.048,4.259-0.205c0.541-0.061,1.039-0.179,1.516-0.342
		c1.363,0.468,2.952,0.466,4.325,0.276c0.912-0.126,1.801-0.344,2.662-0.673c0.826-0.316,1.773-0.671,2.406-1.311
		c0.677-0.685,0.938-1.671,0.969-2.677c0.838-0.406,1.285-1.538,1.598-2.354c0.385-1.006,0.566-2.089,0.618-3.162
		c0.106-2.17-0.478-4.304-1.576-6.17c-1.258-2.138-3.078-3.827-5.163-5.114c0.006-0.122-0.033-0.246-0.141-0.346
		c-1.62-1.489-3.175-2.991-5.076-4.13c-1.869-1.12-3.919-1.826-6.071-2.139c-3.982-0.58-8.009-0.085-11.952,0.601
		c-0.473-0.154-0.963-0.272-1.462-0.365c0.004-0.007,0.006-0.014,0.01-0.021c0.888-1.775,2.028-3.416,2.861-5.219
		c0.869-1.883,1.173-3.801,1.272-5.86c0.106-2.186,0.117-4.379,0.028-6.566c-0.031-0.754-0.081-1.505-0.14-2.254
		c0.697-1.967,1.341-3.955,1.951-5.953c0.35,0.562,1.314,0.513,1.58-0.226c1.396-3.878,2.419-7.865,3.049-11.915
		c0.243,0.943,0.745,1.73,1.847,1.632c0.303-0.027,0.688-0.216,0.738-0.562c0.464-3.194,0.68-6.431,0.699-9.668
		c0.571,0.497,1.303,0.246,1.572-0.422c0.931-2.304,1.224-4.808,1.356-7.309c0.267,1.71,0.556,3.418,0.858,5.122
		c0.178,1.004,0.37,2.008,0.604,3.001c0.235,0.999,0.419,2.023,0.836,2.963c0.061,0.139,0.16,0.219,0.273,0.257
		c0.115,1.827,0.284,3.648,0.531,5.464c0,0.005,0,0.009-0.001,0.014c0.001,0,0.002,0,0.002,0c0.01,0.074,0.017,0.149,0.028,0.223
		c0.126,0.906,1.361,0.698,1.596-0.036c0.135,0.825,0.255,1.653,0.401,2.477c0.312,1.76,0.646,3.517,1.013,5.266
		c0.373,1.779,0.715,3.644,1.504,5.293c0.154,0.321,0.525,0.341,0.785,0.184c0.017,0.378,0.041,0.757,0.055,1.135
		c0.008,0.206,0.085,0.358,0.189,0.478c0.248,2.021,0.582,4.031,1.021,6.021c0.574,2.605,1.259,5.295,2.244,7.829
		c-0.017,1.061,0.031,2.122,0.115,3.151c0.194,2.405,0.638,4.795,1.3,7.115c0.187,0.657,0.919,0.771,1.377,0.466
		c0.45,1.94,0.858,3.89,1.22,5.849c0.085,0.462,0.617,0.75,1.049,0.685c0.138-0.021,0.255-0.068,0.358-0.13
		c0.2,0.955,0.414,1.907,0.656,2.854c0.339,1.325,0.717,2.639,1.135,3.941c0.215,0.669,0.441,1.336,0.676,1.998
		c0.214,0.601,0.408,1.208,0.737,1.75c-0.375,1.434-0.508,2.915-0.507,4.405c0,1.655,0.114,3.36,0.798,4.89
		c1.333,2.978,4.811,4.171,7.679,5.131c3.322,1.113,6.79,1.781,10.284,2.023c1.76,0.122,3.528,0.13,5.289,0.02
		c1.028-0.064,2.096-0.171,2.787-0.755c0.703,0.199,1.454,0.281,2.156,0.358c1.165,0.129,2.346,0.147,3.517,0.127
		c1.984-0.035,4.26-0.068,6.033-1.079c0.409-0.233,0.753-0.524,1.052-0.847c0.186-0.039,0.364-0.122,0.502-0.255
		c0.338-0.324,0.492-0.799,0.671-1.219c0.251-0.587,0.491-1.174,0.701-1.777c0.78-2.238,1.211-4.566,0.839-6.93
		c-0.364-2.305-1.637-4.102-3.557-5.385c-2.016-1.346-4.27-2.406-6.471-3.407c-1.274-0.58-2.563-1.141-3.877-1.627
		c-0.47-0.174-0.957-0.324-1.446-0.458c-1.011-2.306-2.095-4.577-3.142-6.867c-0.271-0.593-0.975-0.435-1.285-0.005
		c-0.959-1.985-1.85-4.003-2.639-6.061c-0.682-1.778-1.3-3.581-1.853-5.402c-0.277-0.911-0.537-1.827-0.781-2.747
		c-0.014-0.051-0.025-0.108-0.037-0.161c-0.129-2.09-0.266-4.18-0.399-6.27c0.281-0.092,0.522-0.325,0.542-0.677
		c0.398-7.078-0.098-14.191-1.434-21.151c0.091-0.116,0.161-0.262,0.179-0.451c0.466-4.861,0.256-9.764-0.595-14.565
		c1.025,4.932,2.155,9.843,3.068,14.797c1.69,9.165,2.351,18.521,5.325,27.414c0.757,2.264,1.522,4.901,3.208,6.667
		c0.852,0.892,1.928,1.549,2.951,2.225c0.87,0.575,1.737,1.169,2.663,1.647c-0.003,0.259,0.186,0.548,0.487,0.575
		c2.142,0.192,3.587,1.97,4.724,3.629c1.451,2.117,2.804,4.306,4.136,6.499c1.326,2.183,2.593,4.405,3.801,6.655
		c1.206,2.246,2.244,4.573,3.426,6.828c0.528,1.007,1.262,1.867,2.283,2.397c1.075,0.558,2.286,0.839,3.456,1.12
		c2.538,0.609,5.129,0.994,7.727,1.234c5.003,0.464,10.039,0.366,15.056,0.214c0.028,0.294,0.244,0.565,0.635,0.586
		c0.591,0.031,1.134,0.101,1.73,0.041c0.589-0.059,1.177-0.157,1.761-0.26c1.185-0.209,2.366-0.452,3.529-0.766
		c1.118-0.302,2.228-0.663,3.288-1.133c0.659-0.292,1.307-0.737,1.666-1.365c0.008,0.001,0.015,0.006,0.023,0.007
		c0.41,0.055,0.819-0.197,0.929-0.607c0.081-0.3,0.161-0.6,0.242-0.901c0.038-0.142,0.079-0.284,0.117-0.426
		C383.745,428.141,383.589,427.14,383.429,426.262z"/>
</g>
</svg>
